<?xml version="1.0" standalone="no"?>
<!DOCTYPE svg PUBLIC "-//W3C//DTD SVG 20010904//EN"
 "http://www.w3.org/TR/2001/REC-SVG-20010904/DTD/svg10.dtd">
<svg version="1.0" xmlns="http://www.w3.org/2000/svg"
 width="512.000000pt" height="512.000000pt" viewBox="0 0 512.000000 512.000000"
 preserveAspectRatio="xMidYMid meet">

<g transform="translate(0.000000,512.000000) scale(0.100000,-0.100000)"
fill="#000000" stroke="none">
<path d="M3433 4764 c-9 -15 -39 -128 -65 -252 -51 -236 -64 -269 -118 -297
-48 -25 -78 -18 -230 54 -311 147 -535 222 -815 273 -162 29 -473 35 -630 14
-318 -45 -567 -138 -828 -313 -219 -146 -370 -285 -461 -423 -177 -269 -267
-598 -282 -1039 -9 -245 14 -544 39 -504 3 5 13 70 22 144 70 601 216 980 474
1240 150 150 308 232 536 280 90 19 349 16 479 -5 352 -58 778 -234 1203 -499
134 -83 186 -135 207 -208 29 -98 23 -125 -98 -390 -36 -81 -66 -160 -66 -178
0 -43 31 -71 79 -71 49 0 1567 327 1602 345 52 28 77 93 56 152 -17 50 -992
1663 -1019 1686 -30 25 -65 22 -85 -9z"/>
<path d="M5077 2728 c-3 -18 -11 -80 -17 -138 -76 -716 -331 -1197 -740 -1396
-150 -73 -304 -105 -505 -105 -253 0 -464 42 -759 151 -324 119 -761 348 -857
449 -50 53 -79 125 -79 195 0 23 27 142 60 264 65 238 71 286 41 323 -36 45
-71 37 -760 -174 -354 -109 -656 -204 -670 -212 -69 -35 -102 -113 -78 -182
22 -65 788 -1516 815 -1545 34 -37 74 -37 100 0 11 15 45 101 76 191 66 192
77 212 126 240 62 35 103 28 241 -40 289 -142 582 -239 864 -285 167 -28 518
-25 679 4 406 75 768 264 1062 557 151 150 247 310 322 537 75 225 108 432
118 732 9 267 -18 558 -39 434z"/>
</g>
</svg>
